<mxfile host="app.diagrams.net" modified="2024-01-10T13:44:07.449Z" agent="Mozilla/5.0 (Macintosh; Intel Mac OS X 10_15_7) AppleWebKit/537.36 (KHTML, like Gecko) Chrome/120.0.0.0 Safari/537.36" etag="GNmu9hstaU9jGMABjjPo" version="22.1.18" type="github">
  <diagram name="第 1 页" id="QYilBv6ce0fKCJkTPs9D">
    <mxGraphModel dx="1562" dy="858" grid="1" gridSize="10" guides="1" tooltips="1" connect="1" arrows="1" fold="1" page="1" pageScale="1" pageWidth="827" pageHeight="1169" math="0" shadow="0">
      <root>
        <mxCell id="0" />
        <mxCell id="1" parent="0" />
        <mxCell id="D-6c2IGcB8lIvSLakQQt-5" style="edgeStyle=orthogonalEdgeStyle;rounded=0;orthogonalLoop=1;jettySize=auto;html=1;exitX=0;exitY=0.5;exitDx=0;exitDy=0;entryX=0.5;entryY=0;entryDx=0;entryDy=0;" edge="1" parent="1" source="D-6c2IGcB8lIvSLakQQt-1" target="D-6c2IGcB8lIvSLakQQt-3">
          <mxGeometry relative="1" as="geometry" />
        </mxCell>
        <mxCell id="D-6c2IGcB8lIvSLakQQt-6" style="edgeStyle=orthogonalEdgeStyle;rounded=0;orthogonalLoop=1;jettySize=auto;html=1;exitX=1;exitY=0.5;exitDx=0;exitDy=0;entryX=0.5;entryY=0;entryDx=0;entryDy=0;" edge="1" parent="1" source="D-6c2IGcB8lIvSLakQQt-1" target="D-6c2IGcB8lIvSLakQQt-4">
          <mxGeometry relative="1" as="geometry" />
        </mxCell>
        <mxCell id="D-6c2IGcB8lIvSLakQQt-1" value="Command has completed successfully&lt;br&gt;Command has completed successfully&lt;br&gt;-&lt;br&gt;Command has been aborted&lt;br&gt;Command has been aborted&lt;br&gt;-&lt;br&gt;Command Failed on: node-D4&lt;br&gt;&lt;div style=&quot;&quot;&gt;&lt;span style=&quot;background-color: initial;&quot;&gt;Command Failed on: node-D7&lt;/span&gt;&lt;/div&gt;" style="rounded=0;whiteSpace=wrap;html=1;align=left;spacingLeft=10;" vertex="1" parent="1">
          <mxGeometry x="290" y="170" width="230" height="140" as="geometry" />
        </mxCell>
        <mxCell id="D-6c2IGcB8lIvSLakQQt-3" value="&lt;font style=&quot;font-size: 15px;&quot;&gt;has&lt;br&gt;&lt;br&gt;&lt;br&gt;failed&lt;/font&gt;" style="ellipse;whiteSpace=wrap;html=1;" vertex="1" parent="1">
          <mxGeometry x="160" y="380" width="120" height="170" as="geometry" />
        </mxCell>
        <mxCell id="D-6c2IGcB8lIvSLakQQt-4" value="&lt;font style=&quot;font-size: 15px;&quot;&gt;completed&lt;br&gt;&lt;br&gt;been&lt;br&gt;&lt;br&gt;on:&lt;/font&gt;" style="ellipse;whiteSpace=wrap;html=1;" vertex="1" parent="1">
          <mxGeometry x="530" y="380" width="120" height="170" as="geometry" />
        </mxCell>
        <mxCell id="D-6c2IGcB8lIvSLakQQt-7" value="" style="endArrow=classic;startArrow=classic;html=1;rounded=0;dashed=1;" edge="1" parent="1">
          <mxGeometry width="50" height="50" relative="1" as="geometry">
            <mxPoint x="240" y="440" as="sourcePoint" />
            <mxPoint x="550" y="430" as="targetPoint" />
          </mxGeometry>
        </mxCell>
        <mxCell id="D-6c2IGcB8lIvSLakQQt-8" value="" style="endArrow=classic;startArrow=classic;html=1;rounded=0;entryX=0.25;entryY=0.5;entryDx=0;entryDy=0;entryPerimeter=0;exitX=0.667;exitY=0.412;exitDx=0;exitDy=0;exitPerimeter=0;dashed=1;" edge="1" parent="1" source="D-6c2IGcB8lIvSLakQQt-3" target="D-6c2IGcB8lIvSLakQQt-4">
          <mxGeometry width="50" height="50" relative="1" as="geometry">
            <mxPoint x="250" y="450" as="sourcePoint" />
            <mxPoint x="460" y="460" as="targetPoint" />
          </mxGeometry>
        </mxCell>
        <mxCell id="D-6c2IGcB8lIvSLakQQt-9" value="" style="endArrow=classic;startArrow=classic;html=1;rounded=0;entryX=0.333;entryY=0.706;entryDx=0;entryDy=0;entryPerimeter=0;dashed=1;" edge="1" parent="1" target="D-6c2IGcB8lIvSLakQQt-4">
          <mxGeometry width="50" height="50" relative="1" as="geometry">
            <mxPoint x="240" y="490" as="sourcePoint" />
            <mxPoint x="530" y="530" as="targetPoint" />
          </mxGeometry>
        </mxCell>
      </root>
    </mxGraphModel>
  </diagram>
</mxfile>
